<svg t="1681312455797" class="icon" viewBox="0 0 1024 1024" version="1.1" xmlns="http://www.w3.org/2000/svg" p-id="3548" width="128" height="128"><path d="M907.8 226.4l0.1-0.2L526 98.2l-13.4-4.5c-0.4-0.1-0.8-0.1-1.2 0l-13.3 4.5-381.8 128 0.1 0.2c-7.7 3.2-13.4 10.7-13.4 20v509.4c0 0.7 0.4 1.4 1.1 1.7l382 162.1 13.2 5.6 12.1 5.1c0.5 0.2 1 0.2 1.4 0l12.1-5.1 13.2-5.6 382-162.1c0.7-0.3 1.1-0.9 1.1-1.7V246.3c-0.1-9.2-5.8-16.7-13.4-19.9zM483.5 862L156 723c-0.7-0.3-1.1-0.9-1.1-1.7V294.9c0-1.3 1.3-2.2 2.5-1.7l327.5 139c0.7 0.3 1.1 0.9 1.1 1.7v426.4c0 1.3-1.3 2.2-2.5 1.7z m27.8-475L201.9 255.6c-1.5-0.7-1.5-2.9 0.1-3.4l310.1-103.9 310 103.9c1.6 0.5 1.7 2.7 0.1 3.4L512.7 387c-0.4 0.2-1 0.2-1.4 0zM868 723L540.5 862c-1.2 0.5-2.5-0.4-2.5-1.7V433.9c0-0.7 0.4-1.4 1.1-1.7l327.5-139c1.2-0.5 2.5 0.4 2.5 1.7v426.4c0 0.7-0.4 1.4-1.1 1.7z" fill="#CCCCCC" p-id="3549"></path></svg>