<?xml version="1.0" standalone="no"?><!DOCTYPE svg PUBLIC "-//W3C//DTD SVG 1.1//EN" "http://www.w3.org/Graphics/SVG/1.1/DTD/svg11.dtd"><svg t="1681043161644" class="icon" viewBox="0 0 1024 1024" version="1.1" xmlns="http://www.w3.org/2000/svg" p-id="7251" xmlns:xlink="http://www.w3.org/1999/xlink" width="128" height="128"><path d="M162.304 893.952c-3.072 0-5.632-0.512-8.704-1.024-16.896-5.12-26.624-22.528-22.016-39.424l140.8-491.008c3.072-9.728 10.24-17.92 19.968-20.992 9.728-3.584 20.48-2.048 28.672 3.584l382.976 258.048L830.976 153.6c4.608-16.896 22.528-27.136 39.424-22.016 16.896 4.608 27.136 22.528 22.016 39.424l-139.264 491.52c-2.56 9.728-10.24 17.92-19.968 21.504s-20.48 2.048-28.672-3.584L321.536 421.888 193.024 870.4c-4.096 14.336-16.896 23.552-30.72 23.552z" fill="#2c2c2c" p-id="7252"></path></svg>