<?xml version="1.0" standalone="no"?><!DOCTYPE svg PUBLIC "-//W3C//DTD SVG 1.1//EN" "http://www.w3.org/Graphics/SVG/1.1/DTD/svg11.dtd"><svg height="1200" legacy-metrics="false" node-id="1" sillyvg="true" template-height="1200" template-width="1200" version="1.1" viewBox="0 0 1200 1200" width="1200" xmlns="http://www.w3.org/2000/svg" xmlns:xlink="http://www.w3.org/1999/xlink"><defs node-id="62"><linearGradient gradientUnits="userSpaceOnUse" id="SVGID_1_" node-id="8" x1="811.7719" x2="873.1199" y1="-485.4211" y2="-629.3613"><stop offset="0.0000004984026" stop-color="#ffdbd4"></stop><stop offset="1" stop-color="#ffd1bf"></stop></linearGradient><linearGradient gradientUnits="userSpaceOnUse" id="SVGID_00000140732825160857882500000004584160581371190409_" node-id="12" x1="860.0752" x2="857.5363" y1="-618.8333" y2="-486.933"><stop offset="0.000000258786" stop-color="#fac1b6"></stop><stop offset="1" stop-color="#ffded1"></stop></linearGradient><linearGradient gradientUnits="userSpaceOnUse" id="SVGID_00000156569190074450909660000012748470217710058429_" node-id="16" x1="860.0753" x2="857.5364" y1="-618.8251" y2="-486.925"><stop offset="0.000000258786" stop-color="#fac1b6"></stop><stop offset="1" stop-color="#ffded1"></stop></linearGradient><linearGradient gradientTransform="matrix(-1 0 0 -1 1717.3657 1200)" gradientUnits="userSpaceOnUse" id="SVGID_00000146481107709378566410000015318263304884060850_" node-id="21" x1="1331.5265" x2="1392.8746" y1="488.8314" y2="632.7716"><stop offset="0.0000004984026" stop-color="#ffdbd4"></stop><stop offset="1" stop-color="#ffd1bf"></stop></linearGradient><linearGradient gradientTransform="matrix(-1 0 0 -1 1717.3657 1200)" gradientUnits="userSpaceOnUse" id="SVGID_00000107570622938303356630000007872229826596954540_" node-id="25" x1="1379.8309" x2="1377.292" y1="622.2427" y2="490.3425"><stop offset="0.000000258786" stop-color="#fac1b6"></stop><stop offset="1" stop-color="#ffded1"></stop></linearGradient><linearGradient gradientUnits="userSpaceOnUse" id="SVGID_00000039091970977018150280000014218879755180343465_" node-id="29" x1="600.261" x2="602.2062" y1="-239.2306" y2="-372.7192"><stop offset="0.000000992013" stop-color="#ffdbd4"></stop><stop offset="1" stop-color="#ffbfaa"></stop></linearGradient><linearGradient gradientUnits="userSpaceOnUse" id="SVGID_00000062892535577102395390000012195391028718336908_" node-id="33" x1="607.7158" x2="595.5215" y1="-936.0923" y2="-302.599"><stop offset="0.0000004984026" stop-color="#ffdbd4"></stop><stop offset="1" stop-color="#ffd1bf"></stop></linearGradient><linearGradient gradientUnits="userSpaceOnUse" id="SVGID_00000070087453727869483260000004357202751268840850_" node-id="37" x1="599.9039" x2="604.7284" y1="7.2497" y2="-323.8349"><stop offset="0.0000003977636" stop-color="#ebebeb"></stop><stop offset="1" stop-color="#f5f5f5"></stop></linearGradient></defs><path d="M 320.60 490.40 C 320.60 490.40 306.50 669.60 359.10 748.30 C 371.40 766.70 395.30 772.70 414.80 777.50 L 399.00 509.60 C 399.00 509.60 320.00 439.00 320.60 490.40 Z" fill="#3d3f47" fill-rule="evenodd" node-id="115" stroke="none" target-height="305.8172" target-width="95.90741" target-x="318.89258" target-y="471.6828"></path><path d="M 873.10 496.40 C 873.10 496.40 887.20 675.60 834.60 754.30 C 822.30 772.70 798.40 778.70 778.90 783.50 L 794.70 515.60 C 794.70 515.70 873.70 445.10 873.10 496.40 Z" fill="#3d3f47" fill-rule="evenodd" node-id="117" stroke="none" target-height="305.75983" target-width="95.90729" target-x="778.9" target-y="477.74017"></path><g node-id="180"><path d="M 802.90 576.50 C 802.90 576.50 889.60 530.10 911.60 571.90 C 933.60 613.80 880.10 754.20 802.90 724.80 L 802.90 576.50 Z" fill="url(#SVGID_1_)" fill-rule="evenodd" group-id="1" node-id="121" stroke="none" target-height="174.32178" target-width="113.66937" target-x="802.9" target-y="554.5014"></path><path d="M 858.60 580.20 C 858.60 580.20 904.40 567.60 901.50 602.70 C 898.60 637.80 878.10 709.20 815.50 711.70 L 858.60 580.20 Z" fill="url(#SVGID_00000140732825160857882500000004584160581371190409_)" fill-rule="evenodd" group-id="1" node-id="123" stroke="none" target-height="133.69623" target-width="86.11157" target-x="815.5" target-y="578.0038"></path><path d="M 858.60 580.20 C 858.60 580.20 904.40 567.60 901.50 602.70 C 898.60 637.80 878.10 709.20 815.50 711.70 L 858.60 580.20 Z" fill="url(#SVGID_00000156569190074450909660000012748470217710058429_)" fill-rule="evenodd" group-id="1" node-id="125" stroke="none" target-height="133.69623" target-width="86.11157" target-x="815.5" target-y="578.0038"></path></g><g node-id="181"><path d="M 394.70 722.30 C 317.50 751.70 264.00 611.40 286.00 569.50 C 308.00 527.60 394.70 574.10 394.70 574.10 L 394.70 722.30 Z" fill="url(#SVGID_00000146481107709378566410000015318263304884060850_)" fill-rule="evenodd" group-id="2" node-id="130" stroke="none" target-height="174.2685" target-width="113.66934" target-x="281.03067" target-y="552.05695"></path><path d="M 339.00 577.80 C 339.00 577.80 293.20 565.20 296.10 600.30 C 299.00 635.40 319.50 706.80 382.10 709.30 L 339.00 577.80 Z" fill="url(#SVGID_00000107570622938303356630000007872229826596954540_)" fill-rule="evenodd" group-id="2" node-id="132" stroke="none" target-height="133.69617" target-width="86.11151" target-x="295.9885" target-y="575.6038"></path></g><path d="M 697.30 825.20 L 601.10 826.60 L 504.90 825.20 C 504.90 825.20 498.90 881.20 488.10 922.80 C 482.60 944.20 498.70 965.00 520.70 965.00 L 598.40 965.00 L 603.70 965.00 L 678.10 965.00 C 701.70 965.00 719.00 942.80 713.30 919.90 C 703.10 878.60 697.30 825.20 697.30 825.20 Z" fill="url(#SVGID_00000039091970977018150280000014218879755180343465_)" fill-rule="evenodd" node-id="135" stroke="none" target-height="139.79999" target-width="227.37985" target-x="487.01785" target-y="825.2"></path><path d="M 840.80 635.00 C 840.80 659.60 835.60 689.70 830.10 714.80 C 823.30 745.60 809.20 774.40 788.80 798.50 L 771.30 819.20 C 746.00 849.10 712.30 870.70 674.50 881.10 L 622.30 895.50 C 608.30 899.40 593.50 899.30 579.50 895.50 L 525.70 880.60 C 489.40 870.60 456.80 850.40 431.50 822.50 L 414.50 803.70 C 397.40 784.80 385.00 764.20 378.20 739.60 C 370.10 710.30 360.90 667.80 360.90 635.10 C 360.90 422.90 371.00 250.90 600.90 250.90 C 805.80 250.90 840.80 422.90 840.80 635.00 Z" fill="url(#SVGID_00000062892535577102395390000012195391028718336908_)" fill-rule="evenodd" node-id="137" stroke="none" target-height="647.48755" target-width="479.9" target-x="360.9" target-y="250.9"></path><path d="M 497.50 876.60 C 453.50 900.30 384.50 931.00 363.10 936.70 C 291.10 955.80 220.00 1010.30 171.00 1200.00 L 1029.00 1200.00 C 1029.00 1200.00 966.40 996.40 854.20 940.70 C 821.90 926.00 742.00 902.60 704.60 876.60 C 708.70 904.60 704.00 926.00 608.60 927.40 C 511.30 928.80 494.80 896.00 497.50 876.60 Z" fill="url(#SVGID_00000070087453727869483260000004357202751268840850_)" fill-rule="evenodd" node-id="139" stroke="none" target-height="323.40002" target-width="858" target-x="171" target-y="876.6"></path><path d="M 673.90 545.80 C 675.30 524.30 696.30 527.10 709.20 528.00 C 725.30 529.10 755.70 535.60 782.80 556.80 C 794.80 566.20 796.10 575.00 775.40 569.60 C 747.70 562.30 729.00 560.40 717.10 558.60 C 698.30 555.80 673.20 557.10 673.90 545.80 Z" fill="#3a302e" fill-rule="evenodd" node-id="141" stroke="none" target-height="43.832764" target-width="117.52722" target-x="673.9" target-y="527.38446"></path><path d="M 483.00 558.00 C 471.30 559.80 453.00 561.60 426.00 568.70 C 405.80 574.00 407.00 565.30 418.80 556.20 C 445.20 535.50 475.00 529.10 490.80 528.00 C 503.40 527.20 524.00 524.30 525.30 545.40 C 526.00 556.40 501.40 555.20 483.00 558.00 Z" fill="#3a302e" fill-rule="evenodd" node-id="143" stroke="none" target-height="42.865173" target-width="114.964966" target-x="410.33502" target-y="527.4178"></path><path d="M 620.80 736.40 C 620.80 742.90 610.60 748.20 598.00 748.20 C 585.40 748.20 575.20 742.90 575.20 736.40 C 575.20 729.90 585.40 716.50 598.00 716.50 C 610.60 716.50 620.80 729.90 620.80 736.40 Z" fill="#ffcbbb" fill-rule="nonzero" node-id="145" stroke="none" target-height="31.700012" target-width="45.599976" target-x="575.2" target-y="716.5"></path><path d="M 484.30 577.10 C 473.30 577.10 463.60 584.40 457.30 595.80 L 462.70 601.30 L 454.70 601.30 C 451.80 608.40 450.10 616.70 450.10 625.50 C 450.10 652.20 465.40 673.90 484.30 673.90 C 503.20 673.90 518.50 652.20 518.50 625.50 C 518.50 598.70 503.20 577.10 484.30 577.10 Z" fill="#3a302e" fill-rule="evenodd" group-id="3" node-id="149" stroke="none" target-height="96.80005" target-width="68.399994" target-x="450.1" target-y="577.1"></path><path d="M 503.40 616.40 C 503.40 624.24 499.86 630.60 495.50 630.60 C 491.14 630.60 487.60 624.24 487.60 616.40 C 487.60 608.56 491.14 602.20 495.50 602.20 C 499.86 602.20 503.40 608.56 503.40 616.40 Z" fill="#fff9f8" fill-rule="evenodd" group-id="3" node-id="151" stroke="none" target-height="28.399963" target-width="15.799988" target-x="487.6" target-y="602.2"></path><path d="M 717.40 577.10 C 728.40 577.10 738.10 584.40 744.40 595.80 L 739.00 601.30 L 748.80 606.30 C 751.70 613.40 751.60 616.70 751.60 625.50 C 751.60 652.20 736.30 673.90 717.40 673.90 C 698.50 673.90 683.20 652.20 683.20 625.50 C 683.20 598.70 698.50 577.10 717.40 577.10 Z" fill="#3a302e" fill-rule="evenodd" group-id="3" node-id="153" stroke="none" target-height="96.80005" target-width="68.39996" target-x="683.2" target-y="577.1"></path><path d="M 709.40 616.40 C 709.40 624.24 705.86 630.60 701.50 630.60 C 697.14 630.60 693.60 624.24 693.60 616.40 C 693.60 608.56 697.14 602.20 701.50 602.20 C 705.86 602.20 709.40 608.56 709.40 616.40 Z" fill="#fff9f8" fill-rule="evenodd" group-id="3" node-id="155" stroke="none" target-height="28.399963" target-width="15.800049" target-x="693.6" target-y="602.2"></path><path d="M 502.00 733.20 C 502.00 743.80 483.29 752.40 460.20 752.40 C 437.11 752.40 418.40 743.80 418.40 733.20 C 418.40 722.60 437.11 714.00 460.20 714.00 C 483.29 714.00 502.00 722.60 502.00 733.20 Z" fill="#ffc2c2" fill-rule="evenodd" node-id="158" stroke="none" target-height="38.400024" target-width="83.600006" target-x="418.4" target-y="714"></path><path d="M 790.80 733.20 C 790.80 743.80 772.09 752.40 749.00 752.40 C 725.91 752.40 707.20 743.80 707.20 733.20 C 707.20 722.60 725.91 714.00 749.00 714.00 C 772.09 714.00 790.80 722.60 790.80 733.20 Z" fill="#ffc2c2" fill-rule="evenodd" node-id="160" stroke="none" target-height="38.400024" target-width="83.599976" target-x="707.2" target-y="714"></path><path d="M 820.50 1066.60 C 820.50 1066.60 886.50 1139.00 898.50 1200.00 L 852.00 1200.00 C 852.00 1200.00 857.40 1136.60 820.50 1066.60 Z" fill="#e2e2e2" fill-rule="evenodd" group-id="4" node-id="164" stroke="none" target-height="133.40002" target-width="78" target-x="820.5" target-y="1066.6"></path><path d="M 379.50 1066.60 C 379.50 1066.60 313.50 1139.00 301.50 1200.00 L 348.00 1200.00 C 348.00 1200.00 342.60 1136.60 379.50 1066.60 Z" fill="#e2e2e2" fill-rule="evenodd" group-id="4" node-id="166" stroke="none" target-height="133.40002" target-width="78" target-x="301.5" target-y="1066.6"></path><path d="M 721.00 225.00 C 721.00 225.00 822.80 228.00 856.80 309.10 C 890.80 390.20 874.30 554.70 874.30 554.70 C 874.30 554.70 856.00 565.40 840.70 563.00 C 839.70 562.80 841.00 563.10 839.90 562.90 C 839.40 562.80 838.70 537.00 838.10 536.90 C 775.10 526.10 627.10 510.00 589.90 434.70 C 589.90 434.70 574.50 471.90 531.30 491.20 C 443.20 530.60 407.00 529.40 342.80 532.40 C 304.00 534.30 281.10 491.20 281.00 425.50 C 280.80 288.50 370.40 209.50 496.10 181.40 C 574.00 164.10 637.20 139.50 721.00 225.00 Z" fill="#32333f" fill-rule="evenodd" node-id="169" stroke="none" target-height="399.00943" target-width="597.30054" target-x="281" target-y="164.31583"></path><path d="M 723.50 226.00 C 723.50 226.00 723.00 193.00 689.30 167.70 C 689.30 167.70 740.20 195.30 743.80 216.50 C 743.80 216.50 792.50 202.10 829.40 219.00 C 829.40 219.00 755.90 221.10 747.40 255.20 L 723.50 226.00 Z" fill="#32333f" fill-rule="evenodd" node-id="171" stroke="none" target-height="87.5" target-width="140.10004" target-x="689.3" target-y="167.7"></path><path d="M 602.90 809.00 C 581.90 809.00 567.90 801.30 567.00 800.90 C 564.60 799.60 563.70 796.50 565.10 794.10 C 566.40 791.70 569.50 790.80 571.90 792.20 C 573.10 792.90 600.40 807.50 635.60 792.00 C 638.10 790.90 641.10 792.00 642.20 794.60 C 643.30 797.10 642.20 800.10 639.60 801.20 C 626.20 807.00 613.60 809.00 602.90 809.00 Z" fill="#ffb094" fill-rule="nonzero" group-id="5" node-id="175" stroke="none" target-height="17.466492" target-width="78.16205" target-x="564.4334" target-y="791.5335"></path><path d="M 583.50 816.30 C 592.30 817.50 607.90 818.90 622.20 816.80 C 624.20 816.50 625.20 819.10 623.50 820.20 C 618.70 823.40 611.80 826.90 604.10 827.30 C 595.70 827.80 587.40 823.30 582.20 819.70 C 580.50 818.60 581.50 816.00 583.50 816.30 Z" fill="#fcc9bb" fill-rule="evenodd" node-id="178" stroke="none" target-height="11" target-width="43.026062" target-x="581.337" target-y="816.3"></path></svg>