<?xml version="1.0" standalone="no"?><!DOCTYPE svg PUBLIC "-//W3C//DTD SVG 1.1//EN" "http://www.w3.org/Graphics/SVG/1.1/DTD/svg11.dtd"><svg height="1200" legacy-metrics="false" node-id="1" sillyvg="true" template-height="1200" template-width="1200" version="1.1" viewBox="0 0 1200 1200" width="1200" xmlns="http://www.w3.org/2000/svg" xmlns:xlink="http://www.w3.org/1999/xlink"><defs node-id="92"><linearGradient gradientUnits="userSpaceOnUse" id="SVGID_1_" node-id="8" x1="603.2576" x2="605.2003" y1="959.6361" y2="826.3212"><stop offset="0.000000992013" stop-color="#ffdbd4"></stop><stop offset="1" stop-color="#ffbfaa"></stop></linearGradient><linearGradient gradientUnits="userSpaceOnUse" id="SVGID_00000054958945470398024350000012610761047140567999_" node-id="12" x1="605.4915" x2="602.2466" y1="1116.3531" y2="893.6771"><stop offset="0.000000876997" stop-color="#e3d6d3"></stop><stop offset="1" stop-color="#dedede"></stop></linearGradient><linearGradient gradientUnits="userSpaceOnUse" id="SVGID_00000038406897617185693930000013428364422286968744_" node-id="16" x1="501.1953" x2="505.0689" y1="849.879" y2="849.879"><stop offset="0.000000992013" stop-color="#ffdbd4"></stop><stop offset="1" stop-color="#ffdcd1"></stop></linearGradient><linearGradient gradientUnits="userSpaceOnUse" id="SVGID_00000042739122852866843240000012476903825899336585_" node-id="20" x1="-6581.5356" x2="-6586.4385" y1="849.0447" y2="849.0447"><stop offset="0.000000992013" stop-color="#ffdbd4"></stop><stop offset="1" stop-color="#ffdcd1"></stop></linearGradient><linearGradient gradientUnits="userSpaceOnUse" id="SVGID_00000110430848486583471800000008461655927985300619_" node-id="25" x1="808.9999" x2="870.0115" y1="670.7267" y2="527.5762"><stop offset="0.0000004984026" stop-color="#ffdbd4"></stop><stop offset="1" stop-color="#ffd1bf"></stop></linearGradient><linearGradient gradientUnits="userSpaceOnUse" id="SVGID_00000098931619212752350090000017846978504100737214_" node-id="29" x1="856.9492" x2="854.4109" y1="537.7667" y2="669.634"><stop offset="0.000000258786" stop-color="#fac1b6"></stop><stop offset="1" stop-color="#ffded1"></stop></linearGradient><linearGradient gradientUnits="userSpaceOnUse" id="SVGID_00000045597735754974526390000009346249548560105616_" node-id="33" x1="856.9492" x2="854.4109" y1="537.7748" y2="669.6422"><stop offset="0.000000258786" stop-color="#fac1b6"></stop><stop offset="1" stop-color="#ffded1"></stop></linearGradient><linearGradient gradientUnits="userSpaceOnUse" id="SVGID_00000059279750647604588890000003611412532237946260_" node-id="38" x1="-1337.6577" x2="-1398.6693" y1="670.7267" y2="527.5762"><stop offset="0.0000004984026" stop-color="#ffdbd4"></stop><stop offset="1" stop-color="#ffd1bf"></stop></linearGradient><linearGradient gradientUnits="userSpaceOnUse" id="SVGID_00000022552166217247833810000011355692821798498212_" node-id="42" x1="-1385.607" x2="-1383.0687" y1="537.7667" y2="669.634"><stop offset="0.000000258786" stop-color="#fac1b6"></stop><stop offset="1" stop-color="#ffded1"></stop></linearGradient><linearGradient gradientUnits="userSpaceOnUse" id="SVGID_00000175324075686675344980000014624335569145947814_" node-id="46" x1="607.9523" x2="595.7006" y1="222.956" y2="859.4402"><stop offset="0.0000004984026" stop-color="#ffdbd4"></stop><stop offset="1" stop-color="#ffd1bf"></stop></linearGradient></defs><path d="M 277.02 500.34 C 277.02 500.34 261.45 708.76 290.37 763.92 C 319.29 819.08 355.21 772.79 332.21 934.41 C 325.20 983.65 328.29 1016.65 351.62 1057.47 C 374.94 1098.29 474.31 1158.75 476.74 1142.60 C 479.17 1126.45 508.01 845.88 508.01 845.88 C 508.01 845.88 554.50 461.13 277.02 500.34 Z" fill="#3d3f47" fill-rule="evenodd" node-id="157" stroke="none" target-height="647.7262" target-width="238.04492" target-x="272.84998" target-y="497.527"></path><path d="M 943.37 451.26 C 943.37 451.26 913.16 740.96 915.17 803.61 C 918.84 917.99 929.17 1081.67 907.22 1111.68 C 879.46 1149.63 731.22 1198.44 728.80 1182.29 C 726.37 1166.14 697.53 885.57 697.53 885.57 C 697.53 885.57 665.89 412.05 943.37 451.26 Z" fill="#3d3f47" fill-rule="evenodd" node-id="159" stroke="none" target-height="736.4817" target-width="246.92517" target-x="696.4448" target-y="448.964"></path><path d="M 499.58 858.11 C 455.60 881.81 384.53 931.03 363.16 936.69 C 291.13 955.78 220.05 1010.28 171.01 1200.00 L 1028.98 1200.00 C 1028.98 1200.00 966.37 996.36 854.17 940.68 C 821.94 925.97 746.98 887.38 709.53 861.41 C 679.80 845.11 656.73 930.80 593.97 934.71 C 540.10 938.06 519.02 864.85 499.58 858.11 Z" fill="#e2d9b3" fill-rule="evenodd" node-id="161" stroke="none" target-height="341.89" target-width="857.97" target-x="171.01" target-y="858.11"></path><path d="M 697.31 825.17 L 601.06 826.55 L 504.81 825.17 C 504.81 825.17 507.31 883.50 496.57 925.14 C 491.06 946.51 511.34 964.99 533.40 964.99 L 598.39 964.99 L 603.73 964.99 L 678.16 964.99 C 701.78 964.99 716.15 943.65 710.45 920.73 C 700.16 879.44 697.31 825.17 697.31 825.17 Z" fill="url(#SVGID_1_)" fill-rule="evenodd" node-id="163" stroke="none" target-height="139.82" target-width="215.99213" target-x="495.68005" target-y="825.17"></path><path d="M 505.94 895.08 L 592.76 1116.16 L 618.77 1116.16 L 698.63 897.33 Z" fill="url(#SVGID_00000054958945470398024350000012610761047140567999_)" fill-rule="evenodd" node-id="165" stroke="none" target-height="221.08002" target-width="192.69" target-x="505.94" target-y="895.08"></path><path d="M 504.92 853.88 C 496.46 852.82 505.07 845.88 505.07 845.88 L 504.92 853.88 Z" fill="url(#SVGID_00000038406897617185693930000013428364422286968744_)" fill-rule="evenodd" node-id="167" stroke="none" target-height="8" target-width="3.8476563" target-x="501.22235" target-y="845.88"></path><path d="M 698.63 844.39 C 698.63 844.39 709.00 854.18 699.57 853.69 L 698.63 844.39 Z" fill="url(#SVGID_00000042739122852866843240000012476903825899336585_)" fill-rule="evenodd" node-id="169" stroke="none" target-height="9.299988" target-width="4.9000244" target-x="698.63" target-y="844.39"></path><g node-id="259"><path d="M 801.37 534.04 C 801.37 534.04 885.63 487.60 907.00 529.48 C 928.37 571.35 876.36 711.74 801.37 682.34 L 801.37 534.04 Z" fill="url(#SVGID_00000110430848486583471800000008461655927985300619_)" fill-rule="evenodd" group-id="1" node-id="173" stroke="none" target-height="174.32794" target-width="110.45453" target-x="801.37" target-y="512.0355"></path><path d="M 855.49 537.78 C 855.49 537.78 899.99 525.16 897.21 560.24 C 894.42 595.33 874.46 666.76 813.65 669.24 L 855.49 537.78 Z" fill="url(#SVGID_00000098931619212752350090000017846978504100737214_)" fill-rule="evenodd" group-id="1" node-id="175" stroke="none" target-height="133.66565" target-width="83.664185" target-x="813.65" target-y="535.57434"></path><path d="M 855.49 537.79 C 855.49 537.79 899.99 525.17 897.21 560.25 C 894.42 595.34 874.46 666.77 813.65 669.25 L 855.49 537.79 Z" fill="url(#SVGID_00000045597735754974526390000009346249548560105616_)" fill-rule="evenodd" group-id="1" node-id="177" stroke="none" target-height="133.66571" target-width="83.664185" target-x="813.65" target-y="535.5843"></path></g><g node-id="260"><path d="M 386.34 682.34 C 311.35 711.74 259.34 571.36 280.71 529.48 C 302.08 487.61 386.34 534.04 386.34 534.04 L 386.34 682.34 Z" fill="url(#SVGID_00000059279750647604588890000003611412532237946260_)" fill-rule="evenodd" group-id="2" node-id="182" stroke="none" target-height="174.32379" target-width="110.45456" target-x="275.88544" target-y="512.0399"></path><path d="M 332.22 537.78 C 332.22 537.78 287.72 525.16 290.50 560.24 C 293.29 595.33 313.25 666.76 374.06 669.24 L 332.22 537.78 Z" fill="url(#SVGID_00000022552166217247833810000011355692821798498212_)" fill-rule="evenodd" group-id="2" node-id="184" stroke="none" target-height="133.66565" target-width="83.66412" target-x="290.39587" target-y="535.57434"></path></g><path d="M 856.60 595.02 C 856.60 807.19 702.68 861.41 601.08 861.41 C 559.48 861.41 507.85 851.88 461.91 825.17 C 428.57 805.79 398.23 777.36 376.90 736.97 C 357.51 700.26 345.57 653.68 345.57 595.02 C 345.57 382.85 356.32 210.85 601.09 210.85 C 819.29 210.85 856.60 382.85 856.60 595.02 Z" fill="url(#SVGID_00000175324075686675344980000014624335569145947814_)" fill-rule="evenodd" node-id="187" stroke="none" target-height="650.55994" target-width="511.02997" target-x="345.57" target-y="210.85"></path><path d="M 620.42 696.40 C 620.42 702.94 610.50 708.24 598.27 708.24 C 586.04 708.24 576.12 702.94 576.12 696.40 C 576.12 689.86 586.04 676.46 598.27 676.46 C 610.51 676.46 620.42 689.86 620.42 696.40 Z" fill="#ffcbbb" fill-rule="nonzero" node-id="189" stroke="none" target-height="31.779968" target-width="44.299988" target-x="576.12" target-y="676.46"></path><path d="M 487.86 537.07 C 477.21 537.07 467.73 544.38 461.65 555.74 L 466.91 561.22 L 459.11 561.22 C 456.27 568.35 454.64 576.62 454.64 585.46 C 454.64 612.19 469.52 633.86 487.87 633.86 C 506.22 633.86 521.10 612.19 521.10 585.46 C 521.09 558.74 506.21 537.07 487.86 537.07 Z" fill="#3a302e" fill-rule="evenodd" group-id="3" node-id="193" stroke="none" target-height="96.78998" target-width="66.45996" target-x="454.64" target-y="537.07"></path><path d="M 506.45 576.43 C 506.45 584.27 503.00 590.62 498.74 590.62 C 494.48 590.62 491.03 584.27 491.03 576.43 C 491.03 568.59 494.48 562.24 498.74 562.24 C 503.00 562.24 506.45 568.59 506.45 576.43 Z" fill="#fff9f8" fill-rule="evenodd" group-id="3" node-id="195" stroke="none" target-height="28.380005" target-width="15.420013" target-x="491.03" target-y="562.24"></path><path d="M 714.30 537.07 C 724.95 537.07 734.43 544.38 740.51 555.74 L 735.25 561.22 L 744.79 566.24 C 747.63 573.37 747.52 576.63 747.52 585.46 C 747.52 612.19 732.64 633.86 714.29 633.86 C 695.94 633.86 681.07 612.19 681.07 585.46 C 681.07 558.74 695.95 537.07 714.30 537.07 Z" fill="#3a302e" fill-rule="evenodd" group-id="3" node-id="197" stroke="none" target-height="96.78998" target-width="66.45001" target-x="681.07" target-y="537.07"></path><path d="M 706.58 576.43 C 706.58 584.27 703.13 590.62 698.87 590.62 C 694.61 590.62 691.16 584.27 691.16 576.43 C 691.16 568.59 694.61 562.24 698.87 562.24 C 703.13 562.24 706.58 568.59 706.58 576.43 Z" fill="#fff9f8" fill-rule="evenodd" group-id="3" node-id="199" stroke="none" target-height="28.380005" target-width="15.420044" target-x="691.16" target-y="562.24"></path><path d="M 504.98 693.19 C 504.98 703.80 486.82 712.41 464.42 712.41 C 442.02 712.41 423.86 703.80 423.86 693.19 C 423.86 682.58 442.02 673.97 464.42 673.97 C 486.82 673.97 504.98 682.58 504.98 693.19 Z" fill="#ffc2c2" fill-rule="evenodd" node-id="202" stroke="none" target-height="38.440002" target-width="81.120026" target-x="423.86" target-y="673.97"></path><path d="M 785.57 693.19 C 785.57 703.80 767.41 712.41 745.01 712.41 C 722.61 712.41 704.45 703.80 704.45 693.19 C 704.45 682.58 722.61 673.97 745.01 673.97 C 767.41 673.97 785.57 682.58 785.57 693.19 Z" fill="#ffc2c2" fill-rule="evenodd" node-id="204" stroke="none" target-height="38.440002" target-width="81.119995" target-x="704.45" target-y="673.97"></path><path d="M 370.11 1059.89 C 370.11 1059.89 298.92 1084.47 285.93 1200.00 L 326.33 1200.00 C 326.32 1200.00 333.14 1129.97 370.11 1059.89 Z" fill="#c9c19f" fill-rule="evenodd" node-id="206" stroke="none" target-height="140.10999" target-width="84.17999" target-x="285.93" target-y="1059.89"></path><path d="M 817.75 1066.56 C 817.75 1066.56 883.77 1138.97 895.76 1200.00 L 849.30 1200.00 C 849.29 1200.00 854.72 1136.64 817.75 1066.56 Z" fill="#c9c19f" fill-rule="evenodd" node-id="208" stroke="none" target-height="133.43994" target-width="78.01001" target-x="817.75" target-y="1066.56"></path><path d="M 579.75 928.34 L 546.01 1084.95 L 599.96 1113.64 L 663.29 1077.98 L 628.31 929.02 Z" fill="#30443d" fill-rule="evenodd" node-id="210" stroke="none" target-height="185.29999" target-width="117.27997" target-x="546.01" target-y="928.34"></path><path d="M 604.28 768.97 C 593.85 768.97 581.66 766.98 568.51 761.02 C 565.99 759.88 564.88 756.92 566.02 754.40 C 567.16 751.89 570.12 750.77 572.64 751.91 C 606.76 767.37 633.20 752.75 634.31 752.12 C 636.71 750.76 639.76 751.59 641.13 753.98 C 642.50 756.37 641.68 759.42 639.29 760.79 C 638.44 761.28 624.75 768.97 604.28 768.97 Z" fill="#ffb094" fill-rule="nonzero" group-id="4" node-id="214" stroke="none" target-height="17.506226" target-width="76.19995" target-x="565.5958" target-y="751.46375"></path><path d="M 584.15 776.30 C 592.69 777.45 607.88 778.86 621.71 776.77 C 623.65 776.48 624.64 779.07 623.01 780.19 C 618.39 783.35 611.61 786.92 604.18 787.33 C 596.01 787.78 587.99 783.34 582.88 779.71 C 581.30 778.58 582.26 776.04 584.15 776.30 Z" fill="#fcc9bb" fill-rule="evenodd" node-id="217" stroke="none" target-height="11.030029" target-width="41.741516" target-x="582.087" target-y="776.3"></path><path d="M 579.53 929.66 L 578.79 933.08 C 578.67 933.63 579.08 934.14 579.64 934.15 L 628.04 934.93 C 628.89 934.94 629.52 934.15 629.32 933.33 L 628.60 930.36 L 579.53 929.66 Z" fill="#193054" fill-rule="evenodd" node-id="219" stroke="none" target-height="5.2700195" target-width="50.532654" target-x="578.79" target-y="929.66"></path><path d="M 511.21 901.57 C 511.21 901.57 555.53 934.07 564.20 934.40 C 572.87 934.74 575.78 920.66 575.78 920.66 L 571.48 909.93 L 511.21 901.57 Z" fill="#d8d8d8" fill-rule="evenodd" node-id="221" stroke="none" target-height="32.830017" target-width="64.57004" target-x="511.21" target-y="901.57"></path><path d="M 697.80 901.57 C 697.80 901.57 653.48 934.07 644.81 934.40 C 636.14 934.74 633.23 920.66 633.23 920.66 L 637.53 909.93 L 697.80 901.57 Z" fill="#d1d1d1" fill-rule="evenodd" node-id="223" stroke="none" target-height="32.830017" target-width="64.57001" target-x="633.23" target-y="901.57"></path><path d="M 579.63 878.00 C 579.63 878.00 620.21 880.50 628.79 877.78 L 635.97 906.91 L 628.86 929.81 C 628.53 930.86 627.56 931.56 626.46 931.55 L 581.41 930.90 C 580.40 930.89 579.51 930.26 579.14 929.32 L 570.97 908.33 L 579.63 878.00 Z" fill="#30443d" fill-rule="evenodd" node-id="225" stroke="none" target-height="53.76996" target-width="65" target-x="570.97" target-y="877.78"></path><path d="M 501.17 851.96 C 501.17 851.96 487.79 878.92 490.55 886.78 C 493.31 894.65 559.23 927.62 566.48 925.81 C 572.23 924.37 576.49 899.74 580.04 878.67 C 580.27 877.30 579.32 876.03 577.94 875.83 C 537.21 870.16 501.17 851.96 501.17 851.96 Z" fill="#eaeaea" fill-rule="evenodd" node-id="227" stroke="none" target-height="73.89899" target-width="89.86252" target-x="490.17746" target-y="851.96"></path><path d="M 703.33 851.93 C 705.15 851.43 720.37 880.59 718.18 886.82 C 715.42 894.69 649.50 927.66 642.25 925.85 C 636.49 924.41 630.16 913.49 628.61 879.45 C 628.51 877.25 630.20 875.40 632.39 875.26 C 666.46 873.05 703.33 851.93 703.33 851.93 Z" fill="#eaeaea" fill-rule="evenodd" node-id="229" stroke="none" target-height="73.969055" target-width="89.76465" target-x="628.61" target-y="851.93"></path><path d="M 703.33 851.05 C 740.39 875.55 760.54 887.81 760.54 887.81 C 769.36 893.06 768.52 906.09 759.11 910.18 L 712.90 930.23 L 746.67 973.05 C 750.35 977.72 750.27 984.33 746.47 988.90 C 746.47 988.90 648.13 1112.23 582.33 1142.60 C 600.00 1118.88 716.59 895.08 703.33 851.05 Z" fill="#c9c19f" fill-rule="evenodd" node-id="231" stroke="none" target-height="291.55" target-width="184.33124" target-x="582.33" target-y="851.05"></path><path d="M 501.17 851.05 C 494.51 857.30 470.64 877.01 448.46 892.60 C 439.11 899.17 434.33 909.59 445.32 912.73 L 490.21 925.57 L 456.94 967.75 C 452.96 972.79 453.06 979.93 457.16 984.86 L 586.83 1134.63 L 599.99 1112.84 C 600.00 1112.83 510.24 945.13 501.17 851.05 Z" fill="#c9c19f" fill-rule="evenodd" node-id="233" stroke="none" target-height="283.58002" target-width="161.01147" target-x="438.97852" target-y="851.05"></path><path d="M 582.33 1142.60 L 580.26 1200.00 L 590.74 1200.00 Z" fill="#c9c19f" fill-rule="evenodd" node-id="235" stroke="none" target-height="57.400024" target-width="10.47998" target-x="580.26" target-y="1142.6"></path><path d="M 606.33 1152.29 C 606.33 1155.65 603.61 1158.37 600.25 1158.37 C 596.89 1158.37 594.17 1155.65 594.17 1152.29 C 594.17 1148.93 596.89 1146.21 600.25 1146.21 C 603.61 1146.21 606.33 1148.93 606.33 1152.29 Z" fill="#b2a87b" fill-rule="evenodd" node-id="237" stroke="none" target-height="12.160034" target-width="12.160034" target-x="594.17" target-y="1146.21"></path><path d="M 606.33 1185.87 C 606.33 1189.23 603.61 1191.95 600.25 1191.95 C 596.89 1191.95 594.17 1189.23 594.17 1185.87 C 594.17 1182.51 596.89 1179.79 600.25 1179.79 C 603.61 1179.79 606.33 1182.51 606.33 1185.87 Z" fill="#b2a87b" fill-rule="evenodd" node-id="239" stroke="none" target-height="12.159912" target-width="12.160034" target-x="594.17" target-y="1179.79"></path><path d="M 870.52 697.76 C 870.52 717.10 865.68 732.77 859.72 732.77 C 853.76 732.77 848.92 717.10 848.92 697.76 C 848.92 678.42 853.76 662.75 859.72 662.75 C 865.68 662.75 870.52 678.42 870.52 697.76 Z" fill="#eddc8c" fill-rule="evenodd" node-id="241" stroke="none" target-height="70.02002" target-width="21.600037" target-x="848.92" target-y="662.75"></path><path d="M 346.81 697.76 C 346.81 717.10 341.97 732.77 336.01 732.77 C 330.05 732.77 325.21 717.10 325.21 697.76 C 325.21 678.42 330.05 662.75 336.01 662.75 C 341.97 662.75 346.81 678.42 346.81 697.76 Z" fill="#eddc8c" fill-rule="evenodd" node-id="243" stroke="none" target-height="70.02002" target-width="21.600006" target-x="325.21" target-y="662.75"></path><path d="M 569.69 150.51 C 569.69 150.51 374.05 123.28 315.06 278.18 C 282.68 363.19 278.92 506.84 275.88 535.57 C 268.16 608.53 325.21 836.63 345.56 526.52 C 347.28 500.30 353.16 314.48 467.52 355.62 C 777.63 240.36 845.80 563.06 855.49 537.78 C 874.95 479.45 913.74 537.94 916.09 553.79 C 949.74 505.86 954.88 394.75 918.83 297.54 C 868.18 160.94 633.17 64.60 569.69 150.51 Z" fill="#3d3f47" fill-rule="evenodd" node-id="245" stroke="none" target-height="566.9338" target-width="668.4888" target-x="275.1769" target-y="118.016396"></path><path d="M 508.01 845.88 C 508.01 845.88 369.84 1013.30 479.17 1166.38 C 479.17 1166.38 329.78 1177.05 325.78 1044.28 C 323.40 965.02 338.60 877.78 338.60 877.78 L 508.01 845.88 Z" fill="#3d3f47" fill-rule="evenodd" node-id="247" stroke="none" target-height="320.70386" target-width="182.48285" target-x="325.52716" target-y="845.88"></path><path d="M 323.08 571.34 C 323.08 571.34 317.76 640.39 325.21 665.40 C 325.21 665.40 352.86 596.28 341.50 542.06 C 330.13 487.84 323.08 571.34 323.08 571.34 Z" fill="#3d3f47" fill-rule="evenodd" node-id="249" stroke="none" target-height="141.60022" target-width="22.95465" target-x="321.24396" target-y="523.7998"></path><path d="M 320.43 498.12 C 320.43 498.12 299.70 618.21 376.90 706.55 C 376.90 706.55 349.18 626.41 345.98 517.32 C 343.51 432.96 320.43 498.12 320.43 498.12 Z" fill="#3d3f47" fill-rule="evenodd" node-id="251" stroke="none" target-height="232.41425" target-width="58.958008" target-x="317.942" target-y="474.13574"></path><path d="M 408.46 1116.16 C 408.46 1116.16 457.38 1163.96 497.62 1176.06 C 497.62 1176.06 454.51 1191.94 408.46 1116.16 Z" fill="#e2d9b3" fill-rule="evenodd" node-id="253" stroke="none" target-height="61.28076" target-width="89.16" target-x="408.46" target-y="1116.16"></path><path d="M 413.73 509.39 C 420.81 497.40 446.99 468.56 526.39 497.17 C 529.85 498.42 532.19 501.77 532.19 505.54 L 532.19 509.78 C 532.19 515.96 526.21 520.23 520.58 518.06 C 500.99 510.49 459.27 498.54 416.10 512.49 C 414.32 513.06 412.76 511.04 413.73 509.39 Z" fill="#3a302e" fill-rule="evenodd" node-id="255" stroke="none" target-height="33.677887" target-width="118.74667" target-x="413.44333" target-y="484.92868"></path><path d="M 773.38 509.39 C 766.30 497.40 740.12 468.56 660.72 497.17 C 657.26 498.42 654.92 501.77 654.92 505.54 L 654.92 509.78 C 654.92 515.96 660.90 520.23 666.53 518.06 C 686.12 510.49 727.84 498.54 771.01 512.49 C 772.80 513.06 774.35 511.04 773.38 509.39 Z" fill="#3a302e" fill-rule="evenodd" node-id="257" stroke="none" target-height="33.677948" target-width="118.747375" target-x="654.92" target-y="484.92868"></path></svg>