<?xml version="1.0" standalone="no"?><!DOCTYPE svg PUBLIC "-//W3C//DTD SVG 1.1//EN" "http://www.w3.org/Graphics/SVG/1.1/DTD/svg11.dtd"><svg height="1200" legacy-metrics="false" node-id="1" sillyvg="true" template-height="1200" template-width="1200" version="1.1" viewBox="0 0 1200 1200" width="1200" xmlns="http://www.w3.org/2000/svg" xmlns:xlink="http://www.w3.org/1999/xlink"><defs node-id="94"><linearGradient gradientUnits="userSpaceOnUse" id="SVGID_1_" node-id="6" x1="805.6132" x2="866.9613" y1="671.1686" y2="527.2284"><stop offset="0.0000004984026" stop-color="#ffdbd4"></stop><stop offset="1" stop-color="#ffd1bf"></stop></linearGradient><linearGradient gradientUnits="userSpaceOnUse" id="SVGID_00000143592322349131936830000004047132257036689303_" node-id="10" x1="853.9225" x2="851.3836" y1="537.7574" y2="669.6576"><stop offset="0.000000258786" stop-color="#fac1b6"></stop><stop offset="1" stop-color="#ffded1"></stop></linearGradient><linearGradient gradientUnits="userSpaceOnUse" id="SVGID_00000129917246209767936700000004528402548635957425_" node-id="14" x1="853.9225" x2="851.3836" y1="537.7654" y2="669.6657"><stop offset="0.000000258786" stop-color="#fac1b6"></stop><stop offset="1" stop-color="#ffded1"></stop></linearGradient><linearGradient gradientUnits="userSpaceOnUse" id="SVGID_00000061466232827444737180000010035974264437124233_" node-id="19" x1="-1319.9908" x2="-1381.339" y1="671.1686" y2="527.2284"><stop offset="0.0000004984026" stop-color="#ffdbd4"></stop><stop offset="1" stop-color="#ffd1bf"></stop></linearGradient><linearGradient gradientUnits="userSpaceOnUse" id="SVGID_00000156586591422187364570000015947859250509813165_" node-id="23" x1="-1368.3003" x2="-1365.7614" y1="537.7574" y2="669.6576"><stop offset="0.000000258786" stop-color="#fac1b6"></stop><stop offset="1" stop-color="#ffded1"></stop></linearGradient><linearGradient gradientUnits="userSpaceOnUse" id="SVGID_00000016798026766497744140000010750129308309735062_" node-id="30" x1="603.2576" x2="605.2003" y1="959.6361" y2="826.3212"><stop offset="0.000000992013" stop-color="#ffdbd4"></stop><stop offset="1" stop-color="#ffbfaa"></stop></linearGradient><linearGradient gradientUnits="userSpaceOnUse" id="SVGID_00000107546615423431002630000005038854391271723914_" node-id="34" x1="605.4915" x2="602.2466" y1="1116.3531" y2="893.6771"><stop offset="0.000000876997" stop-color="#e3d6d3"></stop><stop offset="1" stop-color="#dedede"></stop></linearGradient><linearGradient gradientUnits="userSpaceOnUse" id="SVGID_00000104695672860373737480000003580277204525131404_" node-id="38" x1="501.1953" x2="505.0689" y1="849.879" y2="849.879"><stop offset="0.000000992013" stop-color="#ffdbd4"></stop><stop offset="1" stop-color="#ffdcd1"></stop></linearGradient><linearGradient gradientUnits="userSpaceOnUse" id="SVGID_00000013192259205850254820000011164254506026844849_" node-id="42" x1="-6581.5356" x2="-6586.4385" y1="849.0447" y2="849.0447"><stop offset="0.000000992013" stop-color="#ffdbd4"></stop><stop offset="1" stop-color="#ffdcd1"></stop></linearGradient><linearGradient gradientUnits="userSpaceOnUse" id="SVGID_00000073703804085282173710000004305268165643584185_" node-id="46" x1="607.7046" x2="595.5104" y1="222.9075" y2="856.4008"><stop offset="0.0000004984026" stop-color="#ffdbd4"></stop><stop offset="1" stop-color="#ffd1bf"></stop></linearGradient><mask height="394.59" id="mask-2_00000038388877576798648400000012504312289314174085_" maskUnits="userSpaceOnUse" node-id="85" width="656.61" x="276.35" y="119.52"><path d="M 226.26 1204.42 L 984.33 1204.42 L 984.33 119.52 L 226.26 119.52 Z" fill="#ffffff" fill-rule="evenodd" id="path-1_00000059282424604289278350000006540706626530273466_" node-id="87" stroke="none" target-height="1084.9" target-width="758.07" target-x="226.26" target-y="119.52"></path></mask><filter height="394.59" id="Adobe_OpacityMaskFilter" node-id="83" width="656.61" x="276.35" y="119.52"><feColorMatrix color-interpolation-filters="linearRGB" in="SourceGraphic" result="result1" type="matrix" values="1 0 0 0 0 0 1 0 0 0 0 0 1 0 0 0 0 0 1 0"></feColorMatrix></filter></defs><g node-id="265"><path d="M 796.75 534.04 C 796.75 534.04 883.48 487.60 905.48 529.48 C 927.48 571.35 873.94 711.74 796.75 682.34 L 796.75 534.04 Z" fill="url(#SVGID_1_)" fill-rule="evenodd" group-id="1" node-id="171" stroke="none" target-height="174.32794" target-width="113.69702" target-x="796.75" target-y="512.0355"></path><path d="M 852.46 537.78 C 852.46 537.78 898.27 525.16 895.40 560.24 C 892.53 595.33 871.99 666.76 809.39 669.24 L 852.46 537.78 Z" fill="url(#SVGID_00000143592322349131936830000004047132257036689303_)" fill-rule="evenodd" group-id="1" node-id="173" stroke="none" target-height="133.66565" target-width="86.1181" target-x="809.39" target-y="535.57434"></path><path d="M 852.46 537.79 C 852.46 537.79 898.27 525.17 895.40 560.25 C 892.53 595.34 871.99 666.77 809.39 669.25 L 852.46 537.79 Z" fill="url(#SVGID_00000129917246209767936700000004528402548635957425_)" fill-rule="evenodd" group-id="1" node-id="175" stroke="none" target-height="133.66571" target-width="86.1181" target-x="809.39" target-y="535.5843"></path></g><g node-id="266"><path d="M 405.24 682.34 C 328.05 711.74 274.52 571.36 296.51 529.48 C 318.51 487.61 405.24 534.04 405.24 534.04 L 405.24 682.34 Z" fill="url(#SVGID_00000061466232827444737180000010035974264437124233_)" fill-rule="evenodd" group-id="2" node-id="180" stroke="none" target-height="174.32373" target-width="113.69379" target-x="291.5462" target-y="512.0399"></path><path d="M 349.52 537.78 C 349.52 537.78 303.71 525.16 306.58 560.24 C 309.45 595.32 329.99 666.76 392.59 669.24 L 349.52 537.78 Z" fill="url(#SVGID_00000156586591422187364570000015947859250509813165_)" fill-rule="evenodd" group-id="2" node-id="182" stroke="none" target-height="133.66565" target-width="86.11813" target-x="306.47186" target-y="535.57434"></path></g><path d="M 811.35 419.95 L 840.27 551.05 C 840.27 551.05 843.25 545.61 851.89 533.10 C 872.51 503.24 862.58 395.71 862.58 395.71 L 811.35 419.95 Z" fill="#3d3f47" fill-rule="evenodd" node-id="185" stroke="none" target-height="155.34" target-width="53.617554" target-x="811.35" target-y="395.71"></path><path d="M 371.01 441.41 L 375.28 556.53 L 362.80 570.63 C 362.80 570.63 314.83 499.38 342.24 404.70 C 369.66 310.03 371.01 441.41 371.01 441.41 Z" fill="#3d3f47" fill-rule="evenodd" node-id="187" stroke="none" target-height="200.18561" target-width="41.4935" target-x="333.7865" target-y="370.4444"></path><path d="M 499.58 858.11 C 455.60 881.81 384.53 931.03 363.16 936.69 C 291.13 955.78 220.05 1010.28 171.01 1200.00 L 1028.98 1200.00 C 1028.98 1200.00 966.37 996.36 854.17 940.68 C 821.94 925.97 746.98 887.38 709.53 861.41 C 679.80 845.11 656.73 930.80 593.97 934.71 C 540.10 938.06 519.02 864.85 499.58 858.11 Z" fill="#323a4c" fill-rule="evenodd" node-id="189" stroke="none" target-height="341.89" target-width="857.97" target-x="171.01" target-y="858.11"></path><path d="M 697.31 825.17 L 601.06 826.55 L 504.81 825.17 C 504.81 825.17 507.31 883.50 496.57 925.14 C 491.06 946.51 511.34 964.99 533.40 964.99 L 598.39 964.99 L 603.73 964.99 L 678.16 964.99 C 701.78 964.99 716.15 943.65 710.45 920.73 C 700.16 879.44 697.31 825.17 697.31 825.17 Z" fill="url(#SVGID_00000016798026766497744140000010750129308309735062_)" fill-rule="evenodd" node-id="191" stroke="none" target-height="139.82" target-width="215.99213" target-x="495.68005" target-y="825.17"></path><path d="M 505.94 895.08 L 592.76 1116.16 L 618.77 1116.16 L 698.63 897.33 Z" fill="url(#SVGID_00000107546615423431002630000005038854391271723914_)" fill-rule="evenodd" node-id="193" stroke="none" target-height="221.08002" target-width="192.69" target-x="505.94" target-y="895.08"></path><path d="M 504.92 853.88 C 496.46 852.82 505.07 845.88 505.07 845.88 L 504.92 853.88 Z" fill="url(#SVGID_00000104695672860373737480000003580277204525131404_)" fill-rule="evenodd" node-id="195" stroke="none" target-height="8" target-width="3.8476563" target-x="501.22235" target-y="845.88"></path><path d="M 698.63 844.39 C 698.63 844.39 709.00 854.18 699.57 853.69 L 698.63 844.39 Z" fill="url(#SVGID_00000013192259205850254820000011164254506026844849_)" fill-rule="evenodd" node-id="197" stroke="none" target-height="9.299988" target-width="4.9000244" target-x="698.63" target-y="844.39"></path><path d="M 840.83 595.02 C 840.83 619.62 835.64 649.76 830.15 674.80 C 823.38 705.64 809.21 734.37 788.83 758.50 L 771.31 779.24 C 746.03 809.17 712.29 830.75 674.52 841.15 L 622.29 855.53 C 608.28 859.39 593.48 859.37 579.48 855.49 L 525.70 840.58 C 489.44 830.53 456.78 810.37 431.52 782.47 L 414.52 763.68 C 397.41 744.78 385.00 724.13 378.21 699.56 C 370.11 670.23 360.93 627.78 360.93 595.02 C 360.93 382.85 371.03 210.85 600.89 210.85 C 805.79 210.85 840.83 382.85 840.83 595.02 Z" fill="url(#SVGID_00000073703804085282173710000004305268165643584185_)" fill-rule="evenodd" node-id="199" stroke="none" target-height="647.5625" target-width="479.90002" target-x="360.93" target-y="210.85"></path><path d="M 678.18 522.01 C 678.09 500.83 692.13 497.20 704.54 493.57 C 714.37 490.70 747.51 477.37 781.05 484.72 C 795.91 487.98 800.91 495.41 779.93 499.48 C 751.86 504.92 734.15 511.33 722.63 514.87 C 704.52 520.44 678.23 533.33 678.18 522.01 Z" fill="#3a302e" fill-rule="evenodd" node-id="201" stroke="none" target-height="43.93341" target-width="115.753235" target-x="678.18" target-y="482.54248"></path><path d="M 486.32 514.87 C 474.79 511.33 457.09 504.91 429.02 499.48 C 408.04 495.42 413.05 487.98 427.90 484.72 C 461.44 477.37 494.58 490.69 504.41 493.57 C 516.82 497.20 530.87 500.83 530.77 522.01 C 530.73 533.33 504.44 520.44 486.32 514.87 Z" fill="#3a302e" fill-rule="evenodd" node-id="203" stroke="none" target-height="43.934387" target-width="115.74994" target-x="415.02008" target-y="482.54156"></path><path d="M 620.78 696.40 C 620.78 702.94 610.57 708.24 597.98 708.24 C 585.39 708.24 575.18 702.94 575.18 696.40 C 575.18 689.86 585.39 676.46 597.98 676.46 C 610.58 676.46 620.78 689.86 620.78 696.40 Z" fill="#ffcbbb" fill-rule="nonzero" node-id="205" stroke="none" target-height="31.779968" target-width="45.600037" target-x="575.18" target-y="676.46"></path><path d="M 484.33 537.07 C 473.36 537.07 463.61 544.38 457.35 555.74 L 462.77 561.22 L 454.74 561.22 C 451.82 568.35 450.14 576.62 450.14 585.46 C 450.14 612.19 465.45 633.86 484.34 633.86 C 503.23 633.86 518.54 612.19 518.54 585.46 C 518.53 558.74 503.21 537.07 484.33 537.07 Z" fill="#3a302e" fill-rule="evenodd" group-id="3" node-id="209" stroke="none" target-height="96.78998" target-width="68.39996" target-x="450.14" target-y="537.07"></path><path d="M 503.46 576.43 C 503.46 584.27 499.91 590.62 495.52 590.62 C 491.13 590.62 487.58 584.27 487.58 576.43 C 487.58 568.59 491.13 562.24 495.52 562.24 C 499.91 562.24 503.46 568.59 503.46 576.43 Z" fill="#fff9f8" fill-rule="evenodd" group-id="3" node-id="211" stroke="none" target-height="28.380005" target-width="15.880005" target-x="487.58" target-y="562.24"></path><path d="M 717.41 537.07 C 728.38 537.07 738.13 544.38 744.39 555.74 L 738.97 561.22 L 748.79 566.24 C 751.71 573.37 751.60 576.63 751.60 585.46 C 751.60 612.19 736.29 633.86 717.40 633.86 C 698.51 633.86 683.20 612.19 683.20 585.46 C 683.21 558.74 698.52 537.07 717.41 537.07 Z" fill="#3a302e" fill-rule="evenodd" group-id="3" node-id="213" stroke="none" target-height="96.78998" target-width="68.39996" target-x="683.2" target-y="537.07"></path><path d="M 709.47 576.43 C 709.47 584.27 705.92 590.62 701.53 590.62 C 697.14 590.62 693.59 584.27 693.59 576.43 C 693.59 568.59 697.14 562.24 701.53 562.24 C 705.92 562.24 709.47 568.59 709.47 576.43 Z" fill="#fff9f8" fill-rule="evenodd" group-id="3" node-id="215" stroke="none" target-height="28.380005" target-width="15.879944" target-x="693.59" target-y="562.24"></path><path d="M 370.11 1059.89 C 370.11 1059.89 298.92 1084.47 285.93 1200.00 L 326.33 1200.00 C 326.32 1200.00 333.14 1129.97 370.11 1059.89 Z" fill="#2e3444" fill-rule="evenodd" node-id="218" stroke="none" target-height="140.10999" target-width="84.17999" target-x="285.93" target-y="1059.89"></path><path d="M 817.75 1066.56 C 817.75 1066.56 883.77 1138.97 895.76 1200.00 L 849.30 1200.00 C 849.29 1200.00 854.72 1136.64 817.75 1066.56 Z" fill="#2e3444" fill-rule="evenodd" node-id="220" stroke="none" target-height="133.43994" target-width="78.01001" target-x="817.75" target-y="1066.56"></path><path d="M 579.75 928.34 L 546.01 1084.95 L 599.96 1113.64 L 663.29 1077.98 L 628.31 929.02 Z" fill="#1e3768" fill-rule="evenodd" node-id="222" stroke="none" target-height="185.29999" target-width="117.27997" target-x="546.01" target-y="928.34"></path><path d="M 569.48 768.93 C 567.56 768.93 565.73 767.82 564.90 765.94 C 563.79 763.41 564.94 760.46 567.46 759.35 C 607.44 741.76 638.76 758.83 640.08 759.56 C 642.49 760.91 643.35 763.96 642.00 766.36 C 640.66 768.77 637.62 769.63 635.21 768.29 L 635.21 768.29 C 634.06 767.66 606.75 752.98 571.49 768.50 C 570.83 768.79 570.15 768.93 569.48 768.93 Z" fill="#ffb094" fill-rule="nonzero" group-id="4" node-id="226" stroke="none" target-height="17.505615" target-width="78.13367" target-x="564.5071" target-y="751.4244"></path><path d="M 583.45 776.30 C 592.24 777.45 607.88 778.86 622.11 776.77 C 624.11 776.48 625.13 779.07 623.45 780.19 C 618.69 783.35 611.72 786.92 604.06 787.33 C 595.65 787.78 587.40 783.34 582.13 779.71 C 580.51 778.58 581.49 776.04 583.45 776.30 Z" fill="#fcc9bb" fill-rule="evenodd" node-id="229" stroke="none" target-height="11.030029" target-width="42.97705" target-x="581.31665" target-y="776.3"></path><path d="M 579.53 929.66 L 578.79 933.08 C 578.67 933.63 579.08 934.14 579.64 934.15 L 628.04 934.93 C 628.89 934.94 629.52 934.15 629.32 933.33 L 628.60 930.36 L 579.53 929.66 Z" fill="#193054" fill-rule="evenodd" node-id="231" stroke="none" target-height="5.2700195" target-width="50.532654" target-x="578.79" target-y="929.66"></path><path d="M 511.21 901.57 C 511.21 901.57 555.53 934.07 564.20 934.40 C 572.87 934.74 575.78 920.66 575.78 920.66 L 571.48 909.93 L 511.21 901.57 Z" fill="#d8d8d8" fill-rule="evenodd" node-id="233" stroke="none" target-height="32.830017" target-width="64.57004" target-x="511.21" target-y="901.57"></path><path d="M 697.80 901.57 C 697.80 901.57 653.48 934.07 644.81 934.40 C 636.14 934.74 633.23 920.66 633.23 920.66 L 637.53 909.93 L 697.80 901.57 Z" fill="#d1d1d1" fill-rule="evenodd" node-id="235" stroke="none" target-height="32.830017" target-width="64.57001" target-x="633.23" target-y="901.57"></path><path d="M 579.63 878.00 C 579.63 878.00 620.21 880.50 628.79 877.78 L 635.97 906.91 L 628.86 929.81 C 628.53 930.86 627.56 931.56 626.46 931.55 L 581.41 930.90 C 580.40 930.89 579.51 930.26 579.14 929.32 L 570.97 908.33 L 579.63 878.00 Z" fill="#1e3768" fill-rule="evenodd" node-id="237" stroke="none" target-height="53.76996" target-width="65" target-x="570.97" target-y="877.78"></path><path d="M 501.17 851.96 C 501.17 851.96 487.79 878.92 490.55 886.78 C 493.31 894.65 559.23 927.62 566.48 925.81 C 572.23 924.37 576.49 899.74 580.04 878.67 C 580.27 877.30 579.32 876.03 577.94 875.83 C 537.21 870.16 501.17 851.96 501.17 851.96 Z" fill="#eaeaea" fill-rule="evenodd" node-id="239" stroke="none" target-height="73.89899" target-width="89.86252" target-x="490.17746" target-y="851.96"></path><path d="M 703.33 851.93 C 705.15 851.43 720.37 880.59 718.18 886.82 C 715.42 894.69 649.50 927.66 642.25 925.85 C 636.49 924.41 630.16 913.49 628.61 879.45 C 628.51 877.25 630.20 875.40 632.39 875.26 C 666.46 873.05 703.33 851.93 703.33 851.93 Z" fill="#eaeaea" fill-rule="evenodd" node-id="241" stroke="none" target-height="73.969055" target-width="89.76465" target-x="628.61" target-y="851.93"></path><path d="M 703.33 851.05 C 740.39 875.55 760.54 887.81 760.54 887.81 C 769.36 893.06 768.52 906.09 759.11 910.18 L 712.90 930.23 L 746.67 973.05 C 750.35 977.72 750.27 984.33 746.47 988.90 C 746.47 988.90 648.13 1112.23 582.33 1142.60 C 600.00 1118.88 716.59 895.08 703.33 851.05 Z" fill="#303644" fill-rule="evenodd" node-id="243" stroke="none" target-height="291.55" target-width="184.33124" target-x="582.33" target-y="851.05"></path><path d="M 501.17 851.05 C 494.51 857.30 470.64 877.01 448.46 892.60 C 439.11 899.17 434.33 909.59 445.32 912.73 L 490.21 925.57 L 456.94 967.75 C 452.96 972.79 453.06 979.93 457.16 984.86 L 586.83 1134.63 L 599.99 1112.84 C 600.00 1112.83 510.24 945.13 501.17 851.05 Z" fill="#303644" fill-rule="evenodd" node-id="245" stroke="none" target-height="283.58002" target-width="161.01147" target-x="438.97852" target-y="851.05"></path><path d="M 582.33 1142.60 L 580.26 1200.00 L 590.74 1200.00 Z" fill="#303644" fill-rule="evenodd" node-id="247" stroke="none" target-height="57.400024" target-width="10.47998" target-x="580.26" target-y="1142.6"></path><path d="M 606.33 1152.29 C 606.33 1155.65 603.61 1158.37 600.25 1158.37 C 596.89 1158.37 594.17 1155.65 594.17 1152.29 C 594.17 1148.93 596.89 1146.21 600.25 1146.21 C 603.61 1146.21 606.33 1148.93 606.33 1152.29 Z" fill="#303644" fill-rule="evenodd" node-id="249" stroke="none" target-height="12.160034" target-width="12.160034" target-x="594.17" target-y="1146.21"></path><path d="M 606.33 1185.87 C 606.33 1189.23 603.61 1191.95 600.25 1191.95 C 596.89 1191.95 594.17 1189.23 594.17 1185.87 C 594.17 1182.51 596.89 1179.79 600.25 1179.79 C 603.61 1179.79 606.33 1182.51 606.33 1185.87 Z" fill="#303644" fill-rule="evenodd" node-id="251" stroke="none" target-height="12.159912" target-width="12.160034" target-x="594.17" target-y="1179.79"></path><path d="M 276.35 403.31 C 289.46 331.40 320.96 267.44 365.25 225.09 C 356.38 218.08 347.47 211.05 338.52 203.98 C 402.49 163.60 474.56 143.92 547.82 147.17 C 543.61 138.00 539.38 128.79 535.13 119.52 C 608.25 126.45 758.19 177.98 777.99 183.08 C 867.14 221.34 901.21 298.63 932.95 372.35 C 917.80 359.90 902.53 347.36 887.15 334.71 C 890.43 367.35 905.62 437.77 861.58 514.10 C 861.58 426.93 837.45 393.41 837.45 393.41 L 780.28 466.30 L 784.35 381.46 C 699.85 366.50 681.09 476.31 681.09 476.31 C 681.09 476.31 664.55 423.81 673.83 378.03 C 623.31 380.75 620.89 436.08 620.89 436.08 C 620.89 436.08 604.71 371.83 611.81 364.72 C 618.92 357.61 550.58 375.68 550.58 375.68 C 550.58 375.68 498.77 354.74 492.31 393.57 C 488.12 394.72 407.60 370.78 407.60 370.78 C 407.60 370.78 351.60 446.10 337.83 503.92 C 307.58 442.86 310.40 389.39 310.40 389.39 C 310.40 389.39 287.68 398.68 276.35 403.31" fill="#32333f" fill-rule="evenodd" group-id="5" id="Fill-17_00000150824230044834430490000000180565681329639823_" node-id="88" stroke="none" target-height="394.58" target-width="656.6" target-x="276.35" target-y="119.52"></path><path d="M 701.53 121.34 C 701.53 121.34 728.28 143.73 743.10 177.00 L 802.70 202.24 C 802.70 202.24 811.17 175.79 847.47 177.60 C 847.47 177.60 819.64 148.56 779.10 173.97 C 779.11 173.98 764.93 126.18 701.53 121.34 Z" fill="#32333f" fill-rule="evenodd" node-id="257" stroke="none" target-height="80.90001" target-width="145.93994" target-x="701.53" target-y="121.34"></path><path d="M 856.26 374.87 C 874.16 422.56 831.45 468.65 831.45 468.65 C 837.87 438.15 802.61 370.63 802.61 370.63 C 807.35 425.08 750.37 472.28 750.37 472.28 C 778.20 400.89 757.03 381.83 757.03 381.83 C 752.79 454.44 724.02 472.41 724.02 472.41 C 727.86 430.56 703.34 358.16 703.34 358.16 C 699.82 431.98 670.13 473.72 670.13 473.72 C 684.11 379.56 673.33 378.18 673.33 378.18 C 673.22 462.30 628.34 484.38 628.34 484.38 C 671.70 389.95 629.65 361.59 629.65 361.59 C 587.30 393.62 602.73 470.46 602.73 470.46 C 571.24 436.92 567.70 372.06 567.70 372.06 C 553.18 386.58 568.25 460.63 568.25 460.63 C 551.15 443.11 530.23 349.07 530.23 349.07 C 530.23 349.07 823.28 287.03 856.26 374.87 Z" fill="#32333f" fill-rule="nonzero" node-id="259" stroke="none" target-height="156.57736" target-width="330.36267" target-x="530.23" target-y="327.80264"></path><path d="M 572.75 367.15 C 572.75 367.15 528.15 419.37 538.10 481.08 C 538.10 481.08 502.84 437.68 506.90 379.03 C 506.90 379.03 483.83 448.81 494.90 474.22 C 494.90 474.22 478.15 463.14 474.63 389.33 C 474.63 389.33 441.74 436.81 445.59 478.66 C 445.59 478.66 430.00 471.72 425.76 399.11 C 425.76 399.11 403.99 407.65 419.47 489.79 C 419.47 489.79 382.40 462.13 387.14 407.68 C 387.14 407.68 358.84 467.03 362.04 494.83 C 362.04 494.83 345.30 448.99 361.81 364.72 L 572.75 367.15 Z" fill="#32333f" fill-rule="nonzero" node-id="261" stroke="none" target-height="130.10999" target-width="218.23251" target-x="354.5175" target-y="364.72"></path><path d="M 307.77 388.44 C 307.77 388.44 309.76 475.67 340.25 518.58 C 340.25 518.58 319.88 414.46 356.18 388.44 L 307.77 388.44 Z" fill="#32333f" fill-rule="evenodd" node-id="263" stroke="none" target-height="130.14001" target-width="48.410004" target-x="307.77" target-y="388.44"></path></svg>