<svg t="1681128406115" class="icon" viewBox="0 0 1024 1024" version="1.1" xmlns="http://www.w3.org/2000/svg" p-id="23247" width="128" height="128"><path d="M532.202667 39.168l2.432 2.197333 128 128a32 32 0 0 1-42.837334 47.466667l-2.432-2.197333L544 141.226667V480h338.752l-73.386667-73.386667-2.197333-2.410666a32 32 0 0 1 47.466667-42.837334l128 128 2.197333 2.432a32 32 0 0 1-2.197333 42.837334l-128 128-2.432 2.197333a32 32 0 0 1-42.837334-2.197333l-2.197333-2.432a32 32 0 0 1 2.197333-42.837334l73.386667-73.365333H544v338.752l73.386667-73.386667 2.410666-2.197333a32 32 0 0 1 42.837334 47.466667l-128 128-2.432 2.197333a32 32 0 0 1-42.837334-2.197333l-128-128-2.197333-2.432a32 32 0 0 1 2.197333-42.837334l2.432-2.197333a32 32 0 0 1 42.837334 2.197333l73.365333 73.386667V544H141.226667l73.386666 73.386667a32 32 0 0 1 2.218667 42.816l-2.197333 2.432a32 32 0 0 1-42.837334 2.197333l-2.432-2.197333-128-128a32 32 0 0 1-2.197333-42.837334l2.197333-2.432 128-128a32 32 0 0 1 47.466667 42.837334l-2.197333 2.432L141.226667 480H480V141.226667l-73.386667 73.386666a32 32 0 0 1-42.816 2.218667l-2.432-2.197333a32 32 0 0 1-2.197333-42.837334l2.197333-2.432 128-128a32 32 0 0 1 42.837334-2.197333z" fill="#333333" p-id="23248"></path></svg>