<svg t="1681116234423" class="icon" viewBox="0 0 1024 1024" version="1.1" xmlns="http://www.w3.org/2000/svg" p-id="11832" width="128" height="128"><path d="M1008.2 702.6l-414-137.8c-2.2-0.7-4.6-1.1-7-1.1-2.4 0-4.9 0.4-7.4 1.1-12.2 4-18.9 17-14.9 29.6l137.6 412.5c1.7 5.8 5.6 11.1 11.4 14.2 3.5 1.9 7.3 2.8 11 2.8 8.4 0 16.5-4.6 20.5-12.4l63.5-120.9 115.3 115.5 1.3 1.1c4.5 4.5 10.4 6.7 16.4 6.7s11.9-2.2 16.4-6.7l49.1-49.3c9.1-9.1 9.1-23.6 0-32.8l-116.6-116.4 120.7-63.5c5.3-3 9.3-7.3 11.2-13.4C1026.9 719.6 1020.1 706.5 1008.2 702.6zM861 752.1l-71.3 37.5-37.4 71.2-18.9 36.1-82-245.7 245.8 81.8L861 752.1z" p-id="11833"></path><path d="M899.8 256 333.2 256c-42.6 0-77.2 34.6-77.2 77.2l0 506.9c0 42.6 34.6 77.2 77.2 77.2l178.4 0c17.7 0 32-14.3 32-32s-14.3-32-32-32L333.2 853.3c-7.3 0-13.2-5.9-13.2-13.2L320 333.2c0-7.3 5.9-13.2 13.2-13.2l566.6 0c7.3 0 13.2 5.9 13.2 13.2l0 242.5c0 17.7 14.3 32 32 32s32-14.3 32-32L977 333.2C977.1 290.6 942.4 256 899.8 256z" p-id="11834"></path><path d="M744.1 160c0-17.7-14.3-32-32-32L205.2 128c-42.6 0-77.2 34.6-77.2 77.2l0 506.9c0 17.7 14.3 32 32 32 17.7 0 32-14.3 32-32L192 205.2c0-7.3 5.9-13.2 13.2-13.2l506.9 0C729.8 192 744.1 177.6 744.1 160z" p-id="11835"></path><path d="M616.1 32c0-17.7-14.3-32-32-32L77.2 0c-42.6 0-77.2 34.6-77.2 77.2l0 506.9c0 17.7 14.3 32 32 32 17.7 0 32-14.3 32-32L64 77.2c0-7.3 5.9-13.2 13.2-13.2l506.9 0C601.8 64 616.1 49.6 616.1 32z" p-id="11836"></path></svg>